<svg xmlns="http://www.w3.org/2000/svg" viewBox="0 0 100 100">
  <defs>
    <mask id="stars">
      <rect width="100" height="100" fill="#fff"/>
      <path d="M36.2 56 Q37.3 67.9 49 69 Q37.3 70.1 36.2 82 Q35.1 70.1 23.4 69 Q35.1 67.9 36.2 56Z" fill="#000"/>
      <path d="M66 18 Q67.1 29.9 78.8 31 Q67.1 32.1 66 44 Q64.9 32.1 53.2 31 Q64.9 29.9 66 18Z" fill="#000"/>
    </mask>
  </defs>
  <g fill="#3D779C" mask="url(#stars)">
    <rect x="5" y="5" width="29.4" height="90" rx="12"/>
    <rect x="38" y="5" width="26.2" height="90" rx="9"/>
    <rect x="67.8" y="5" width="27.2" height="90" rx="12"/>
    <rect x="22" y="69" width="30" height="26"/>
    <rect x="50" y="5" width="32" height="26"/>
  </g>
</svg>
